<?xml version="1.0" encoding="iso-8859-1"?>
<!-- Generator: Adobe Illustrator 19.0.0, SVG Export Plug-In . SVG Version: 6.00 Build 0)  -->
<svg version="1.1" id="Capa_1" xmlns="http://www.w3.org/2000/svg" xmlns:xlink="http://www.w3.org/1999/xlink" x="0px" y="0px"
	 viewBox="0 0 512 512" style="enable-background:new 0 0 512 512;" xml:space="preserve">
<g>
	<g>
		<path d="M350.397,0H55.762v512h400.475V105.841L350.397,0z M441.03,496.792H70.97V15.208h273.128l96.931,96.931V496.792z"/>
	</g>
</g>
<g>
	<g>
		<polygon points="354.852,101.386 354.852,43.089 339.644,43.089 339.644,116.594 413.148,116.594 413.148,101.386 		"/>
	</g>
</g>
<g>
	<g>
		<rect x="114.059" y="300.103" width="283.881" height="15.208"/>
	</g>
</g>
<g>
	<g>
		<rect x="114.059" y="345.727" width="283.881" height="15.208"/>
	</g>
</g>
<g>
	<g>
		<rect x="114.059" y="391.351" width="111.525" height="15.208"/>
	</g>
</g>
<g>
	<g>
		<rect x="240.792" y="391.351" width="15.208" height="15.208"/>
	</g>
</g>
<g>
	<g>
		<rect x="301.624" y="391.351" width="15.208" height="15.208"/>
	</g>
</g>
<g>
	<g>
		<rect x="271.208" y="391.351" width="15.208" height="15.208"/>
	</g>
</g>
<g>
	<g>
		<rect x="114.059" y="254.479" width="283.881" height="15.208"/>
	</g>
</g>
<g>
	<g>
		<rect x="114.059" y="208.855" width="283.881" height="15.208"/>
	</g>
</g>
<g>
	<g>
		<rect x="114.059" y="163.232" width="283.881" height="15.208"/>
	</g>
</g>
<g>
	<g>
		<rect x="174.891" y="82.63" width="15.208" height="15.208"/>
	</g>
</g>
<g>
	<g>
		<rect x="114.059" y="82.63" width="15.208" height="15.208"/>
	</g>
</g>
<g>
	<g>
		<rect x="144.475" y="52.214" width="15.208" height="15.208"/>
	</g>
</g>
<g>
	<g>
		<rect x="144.475" y="113.046" width="15.208" height="15.208"/>
	</g>
</g>
<g>
	<g>
		<rect x="144.475" y="82.63" width="15.208" height="15.208"/>
	</g>
</g>
<g>
</g>
<g>
</g>
<g>
</g>
<g>
</g>
<g>
</g>
<g>
</g>
<g>
</g>
<g>
</g>
<g>
</g>
<g>
</g>
<g>
</g>
<g>
</g>
<g>
</g>
<g>
</g>
<g>
</g>
</svg>
