<?xml version="1.0" encoding="iso-8859-1"?>
<!-- Generator: Adobe Illustrator 19.0.0, SVG Export Plug-In . SVG Version: 6.00 Build 0)  -->
<svg version="1.1" id="Capa_1" xmlns="http://www.w3.org/2000/svg" xmlns:xlink="http://www.w3.org/1999/xlink" x="0px" y="0px"
	 viewBox="0 0 512 512" style="enable-background:new 0 0 512 512;" xml:space="preserve">
<g>
	<g>
		<path d="M256,0C114.615,0,0,114.615,0,256s114.615,256,256,256s256-114.615,256-256S397.385,0,256,0z M118.932,357.893
			L42.424,323.83l12.202-27.406l28.237,12.572c-19.212-62.905-2.879-132.984,45.134-180.997
			c28.311-28.311,64.198-46.086,103.783-51.402c38.306-5.143,77.939,2.25,111.607,20.82l-14.49,26.27
			c-28.076-15.488-61.147-21.647-93.123-17.357c-33.011,4.435-62.944,19.263-86.564,42.883c-40.136,40.136-53.74,98.748-37.57,151.3
			l13.948-31.328l27.406,12.201L118.932,357.893z M429.137,203.006c19.212,62.905,2.879,132.984-45.134,180.997
			c-28.311,28.311-64.198,46.086-103.783,51.402c-7.946,1.067-15.953,1.596-23.948,1.596c-30.546,0-60.975-7.698-87.659-22.416
			l14.49-26.27c28.077,15.489,61.149,21.65,93.123,17.357c33.011-4.435,62.944-19.263,86.564-42.883
			c40.136-40.136,53.74-98.748,37.57-151.3l-13.948,31.328l-27.406-12.201l34.062-76.509l76.508,34.063l-12.202,27.406
			L429.137,203.006z"/>
	</g>
</g>
<g>
</g>
<g>
</g>
<g>
</g>
<g>
</g>
<g>
</g>
<g>
</g>
<g>
</g>
<g>
</g>
<g>
</g>
<g>
</g>
<g>
</g>
<g>
</g>
<g>
</g>
<g>
</g>
<g>
</g>
</svg>
